<?xml version="1.0" standalone="no"?>
<!DOCTYPE svg PUBLIC "-//W3C//DTD SVG 20010904//EN"
 "http://www.w3.org/TR/2001/REC-SVG-20010904/DTD/svg10.dtd">
<svg version="1.0" xmlns="http://www.w3.org/2000/svg"
 width="128.000000pt" height="128.000000pt" viewBox="0 0 128.000000 128.000000"
 preserveAspectRatio="xMidYMid meet">
<metadata>
Created by potrace 1.10, written by Peter Selinger 2001-2011
</metadata>
<g transform="translate(0.000000,128.000000) scale(0.100000,-0.100000)"
fill="#000000" stroke="none">
<path d="M83 1249 c-45 -29 -75 -81 -71 -121 l4 -33 8 30 c17 59 48 97 100
121 47 22 48 24 21 24 -16 0 -44 -10 -62 -21z"/>
<path d="M1150 1248 c52 -26 78 -54 102 -112 l17 -41 0 34 c2 66 -71 141 -135
141 -27 0 -26 -1 16 -22z"/>
<path d="M845 1229 c-33 -4 -94 -7 -135 -8 -42 -1 -102 -8 -134 -16 -52 -14
-66 -14 -132 0 -93 19 -147 19 -215 -1 -96 -29 -169 -131 -169 -239 0 -71 31
-225 66 -332 81 -246 154 -317 256 -248 45 31 46 31 41 1 -6 -27 27 -66 54
-66 10 0 36 7 58 15 72 26 72 26 77 -78 4 -107 25 -158 79 -195 30 -21 42 -23
93 -18 118 12 161 61 185 212 9 60 21 106 28 108 7 3 34 -1 60 -9 61 -19 68
-19 87 1 31 31 20 69 -34 114 -29 25 -50 50 -50 62 0 17 32 74 50 88 25 20
110 309 110 374 0 88 -74 176 -180 214 -67 25 -117 30 -195 21z m217 -52 c68
-33 113 -82 128 -138 9 -33 8 -57 -5 -118 -27 -121 -69 -235 -114 -309 -22
-37 -41 -75 -41 -84 0 -9 25 -37 56 -63 40 -34 54 -53 52 -69 -3 -18 -8 -21
-48 -17 -25 2 -63 4 -85 5 l-39 1 -17 -100 c-22 -128 -30 -147 -75 -181 -51
-39 -146 -46 -186 -14 -36 27 -58 103 -58 194 0 102 -3 104 -93 82 -109 -27
-127 -5 -56 71 33 36 38 47 29 59 -19 22 -27 18 -89 -40 -107 -103 -151 -96
-216 34 -99 198 -148 490 -98 585 57 108 170 146 328 110 63 -14 85 -15 119
-6 54 15 247 30 362 27 76 -1 99 -6 146 -29z m-582 -710 c0 -2 -12 -14 -27
-28 -20 -18 -24 -19 -13 -4 18 24 40 42 40 32z"/>
<path d="M281 1158 c-57 -10 -115 -50 -138 -96 -26 -54 -24 -229 5 -335 30
-110 99 -263 130 -287 32 -26 55 -19 105 29 47 45 53 68 31 117 -14 32 -17 67
-16 203 2 181 2 182 39 263 14 31 23 63 20 72 -12 31 -101 48 -176 34z m134
-34 l25 -16 -20 -33 c-28 -46 -50 -155 -46 -236 l2 -67 -95 -23 c-53 -12 -102
-24 -109 -26 -7 -3 -10 0 -7 9 3 8 1 28 -6 44 -6 16 -13 72 -15 124 -3 76 0
103 15 135 16 37 65 84 101 98 33 12 131 7 155 -9z m-46 -423 c1 -27 8 -68 16
-91 8 -24 15 -54 15 -67 0 -28 -54 -86 -84 -91 -19 -4 -65 42 -66 65 0 10 -11
35 -51 114 -4 9 -11 32 -14 51 -7 35 -6 36 32 43 21 4 49 9 61 11 13 1 26 5
30 8 3 3 17 6 32 6 25 0 27 -3 29 -49z"/>
<path d="M615 1161 c-46 -11 -69 -27 -105 -67 -36 -42 -70 -114 -70 -150 0
-23 3 -24 66 -24 59 0 68 -3 94 -28 47 -48 52 -154 14 -277 l-18 -55 33 -45
33 -46 -1 -120 c-2 -186 21 -239 104 -239 58 0 88 12 109 45 19 29 56 212 56
276 0 21 8 54 17 73 l16 36 -56 118 c-80 166 -78 225 8 263 51 23 60 40 40 79
-51 98 -239 187 -340 161z m130 -33 c34 -10 95 -41 95 -50 0 -4 6 -8 13 -8 16
0 87 -79 87 -97 0 -7 -14 -20 -31 -29 -49 -25 -79 -63 -79 -99 0 -32 0 -32
-61 -39 -115 -12 -119 -11 -119 28 0 65 -76 123 -144 110 -19 -3 -36 -1 -40 4
-4 6 4 35 17 64 22 48 70 98 117 120 16 8 111 5 145 -4z m91 -365 c8 -21 33
-75 56 -120 34 -68 39 -88 34 -120 -4 -21 -11 -72 -16 -113 -16 -124 -41 -224
-61 -249 -13 -16 -33 -25 -62 -28 -37 -4 -48 -1 -71 20 -27 26 -27 26 -27 163
0 135 -1 140 -31 196 -29 55 -30 60 -18 104 7 26 16 74 19 108 l6 61 55 6
c104 11 100 12 116 -28z"/>
<path d="M875 1160 c-4 -6 19 -38 50 -73 31 -34 68 -84 82 -110 23 -46 24 -55
17 -152 -3 -57 -3 -125 1 -151 l7 -49 18 23 c23 29 76 154 95 228 19 74 19
147 0 183 -18 36 -67 77 -112 96 -40 17 -149 20 -158 5z m133 -24 c39 -9 93
-47 113 -80 25 -41 24 -104 -2 -193 -20 -68 -24 -73 -50 -73 l-28 0 6 70 c5
61 3 75 -20 122 -15 29 -47 76 -72 105 -54 61 -43 71 53 49z m82 -362 c0 -3
-7 -21 -15 -42 -13 -29 -18 -34 -25 -22 -5 8 -10 26 -10 40 0 20 5 25 25 26
14 1 25 0 25 -2z"/>
<path d="M446 857 c-24 -18 -34 -142 -16 -206 14 -54 61 -104 92 -99 47 6 106
185 80 243 -7 14 -23 25 -45 29 -19 3 -42 15 -52 26 -21 23 -34 25 -59 7z m58
-32 c11 -8 30 -15 43 -15 13 0 23 -4 23 -10 0 -5 -15 -10 -34 -10 -18 0 -48
-3 -65 -6 -26 -5 -30 -4 -26 10 3 9 7 23 10 31 6 19 24 19 49 0z m77 -55 c3
-29 2 -49 -5 -85 -8 -43 -42 -115 -54 -115 -24 1 -72 70 -71 102 1 12 1 28 -1
33 -9 34 1 64 23 68 44 9 107 7 108 -3z"/>
<path d="M953 849 c-6 -6 -26 -14 -45 -18 -42 -9 -41 -17 23 -150 33 -70 53
-101 60 -94 13 13 -2 265 -16 270 -6 2 -16 -2 -22 -8z m17 -40 c0 -5 -17 -9
-37 -9 l-38 1 30 13 c31 14 45 12 45 -5z m-2 -69 c-2 -61 -17 -64 -41 -10 -23
54 -22 60 12 60 29 0 30 -1 29 -50z"/>
<path d="M974 475 c-3 -8 -3 -19 1 -25 10 -15 91 -50 117 -50 20 0 21 1 3 20
-17 19 -97 70 -110 70 -3 0 -8 -7 -11 -15z"/>
<path d="M529 433 c-48 -35 -59 -48 -46 -51 30 -6 132 50 132 72 0 33 -20 28
-86 -21z"/>
<path d="M1262 173 c-5 -10 -12 -30 -16 -45 -8 -36 -62 -88 -97 -95 -39 -7
-47 -23 -13 -23 34 0 87 32 110 68 15 23 37 112 28 112 -2 0 -7 -8 -12 -17z"/>
<path d="M11 146 c-2 -61 74 -137 135 -135 l29 1 -32 10 c-18 6 -33 15 -33 19
0 5 -5 9 -11 9 -15 0 -50 44 -71 89 l-17 36 0 -29z"/>
</g>
</svg>
