<?xml version="1.0" standalone="no"?>
<!DOCTYPE svg PUBLIC "-//W3C//DTD SVG 20010904//EN"
 "http://www.w3.org/TR/2001/REC-SVG-20010904/DTD/svg10.dtd">
<svg version="1.0" xmlns="http://www.w3.org/2000/svg"
 width="200.000000pt" height="200.000000pt" viewBox="0 0 200.000000 200.000000"
 preserveAspectRatio="xMidYMid meet">
<metadata>
Created by potrace 1.10, written by Peter Selinger 2001-2011
</metadata>
<g transform="translate(0.000000,200.000000) scale(0.100000,-0.100000)"
fill="#000000" stroke="none">
<path d="M1230 1796 c0 -8 -7 -22 -16 -30 -14 -15 -14 -16 6 -16 11 0 23 -7
26 -15 4 -8 12 -15 20 -15 8 0 14 -4 14 -9 0 -5 10 -13 22 -16 11 -4 31 -18
43 -31 12 -13 25 -24 28 -24 4 0 27 -20 53 -45 25 -25 50 -45 56 -45 5 0 7 -4
3 -9 -3 -5 4 -12 15 -16 11 -3 20 -10 20 -15 0 -5 14 -22 30 -38 17 -17 30
-35 30 -40 0 -5 11 -18 25 -28 14 -10 25 -24 25 -31 0 -7 9 -21 20 -30 11 -10
20 -23 20 -30 0 -7 4 -13 9 -13 5 0 13 -10 17 -22 4 -13 9 -25 13 -28 7 -6 36
-66 45 -92 3 -10 13 -18 23 -18 19 1 64 30 46 30 -6 0 -14 13 -18 30 -4 17
-11 30 -16 30 -5 0 -9 9 -9 20 0 11 -7 23 -15 26 -8 4 -15 14 -15 23 0 9 -11
28 -24 42 -13 14 -27 35 -30 47 -4 12 -12 22 -17 22 -5 0 -9 6 -9 14 0 7 -13
23 -30 36 -16 13 -30 27 -30 32 0 19 -157 178 -176 178 -3 0 -15 11 -28 25
-13 14 -28 25 -35 25 -6 0 -11 4 -11 10 0 5 -13 16 -29 25 -16 8 -35 21 -43
28 -23 23 -58 31 -58 13z m135 -104 c-3 -3 -11 0 -18 7 -9 10 -8 11 6 5 10 -3
15 -9 12 -12z"/>
<path d="M726 1749 c-10 -53 -8 -59 24 -59 17 0 30 -4 30 -9 0 -5 18 -11 40
-15 22 -3 40 -11 40 -16 0 -6 11 -10 24 -10 13 0 29 -7 36 -15 7 -8 21 -15 31
-15 11 0 19 -4 19 -9 0 -5 14 -12 30 -16 17 -4 30 -11 30 -16 0 -5 11 -11 25
-15 14 -3 25 -10 25 -15 0 -5 5 -9 10 -9 6 0 21 -11 34 -25 13 -13 25 -22 28
-20 3 3 16 -6 29 -20 13 -13 30 -25 37 -25 6 0 12 -4 12 -9 0 -5 9 -13 20 -16
11 -4 18 -10 15 -15 -3 -5 4 -11 15 -15 11 -3 20 -10 20 -15 0 -5 14 -22 31
-39 17 -17 34 -31 39 -31 5 0 12 -9 15 -20 4 -11 10 -18 15 -15 5 3 12 -5 16
-17 4 -13 17 -33 30 -45 13 -12 24 -27 24 -33 0 -5 5 -10 11 -10 5 0 7 -4 4
-10 -3 -5 -1 -10 4 -10 6 0 11 -6 11 -14 0 -8 7 -16 15 -20 8 -3 15 -13 15
-21 0 -9 4 -14 9 -11 5 3 12 -6 16 -21 3 -16 10 -30 13 -33 12 -9 42 -71 42
-86 0 -8 4 -14 10 -14 5 0 13 -18 16 -41 4 -23 10 -36 14 -29 4 7 11 -13 14
-44 4 -31 12 -56 17 -56 5 0 9 -14 9 -31 0 -28 3 -31 23 -25 12 3 30 6 40 6
11 0 17 8 17 25 0 14 -4 25 -10 25 -5 0 -10 14 -10 30 0 17 -4 30 -9 30 -5 0
-12 23 -16 51 -4 29 -10 46 -15 39 -4 -7 -10 5 -14 29 -3 23 -10 41 -15 41 -5
0 -12 14 -16 30 -4 16 -11 30 -16 30 -5 0 -9 7 -9 15 0 8 -4 15 -10 15 -5 0
-10 3 -9 8 2 16 -14 51 -21 47 -5 -3 -11 8 -15 25 -4 16 -10 30 -15 30 -5 0
-12 10 -15 22 -4 11 -18 31 -31 43 -13 12 -24 26 -24 29 0 4 -20 28 -45 53
-25 24 -45 49 -45 54 0 6 -3 8 -7 6 -10 -6 -34 19 -26 27 4 3 1 6 -5 6 -6 0
-31 20 -55 45 -25 25 -48 45 -52 45 -3 0 -16 11 -28 24 -12 13 -32 26 -44 30
-13 4 -23 11 -23 16 0 4 -11 11 -25 14 -14 4 -23 11 -20 16 3 6 -3 10 -15 10
-11 0 -23 7 -26 15 -4 8 -15 15 -26 15 -12 0 -17 4 -12 12 4 6 3 8 -4 4 -6 -3
-13 -2 -17 4 -3 5 -15 10 -26 10 -10 0 -19 4 -19 9 0 5 -13 12 -30 16 -16 4
-30 10 -30 15 0 5 -20 12 -45 16 -25 3 -42 10 -39 15 3 5 -8 9 -25 9 -16 0
-31 4 -33 9 -1 4 -13 11 -24 15 -18 5 -22 2 -28 -25z m77 -27 c11 0 61 -19
125 -48 29 -13 54 -24 56 -24 17 0 255 -159 301 -201 84 -76 205 -202 205
-213 0 -4 18 -30 39 -59 50 -67 101 -154 101 -172 0 -8 4 -15 8 -15 4 0 22
-39 41 -87 18 -49 37 -96 42 -105 13 -25 11 -68 -3 -68 -6 0 -9 3 -6 6 4 3 0
21 -8 40 -8 19 -12 40 -8 46 5 7 2 8 -6 3 -10 -6 -12 -3 -8 13 3 12 2 22 -3
24 -5 2 -29 46 -52 99 -40 87 -118 211 -200 314 -45 56 -195 191 -280 249 -81
57 -290 166 -318 166 -10 0 -21 5 -24 10 -3 6 -15 10 -26 10 -10 0 -19 7 -19
15 0 12 4 13 18 6 9 -5 21 -9 25 -9z"/>
<path d="M140 1611 l0 -49 128 -7 c79 -5 119 -11 107 -16 -15 -6 -10 -8 21 -8
67 -1 134 -13 128 -22 -3 -5 9 -9 25 -9 17 0 31 -4 31 -9 0 -6 20 -13 45 -17
25 -3 43 -10 40 -14 -3 -5 13 -11 35 -15 22 -4 38 -10 35 -15 -3 -4 11 -11 30
-14 19 -4 35 -11 35 -15 0 -9 38 -24 52 -22 5 1 8 -3 8 -9 0 -5 7 -10 15 -10
8 0 15 -4 15 -9 0 -5 10 -13 22 -16 11 -4 31 -18 43 -31 12 -13 25 -24 29 -24
4 0 17 -11 30 -25 13 -13 26 -22 29 -18 4 3 7 1 7 -5 0 -7 5 -12 10 -12 18 0
150 -141 143 -153 -3 -5 -1 -7 5 -3 6 3 13 -3 17 -14 3 -11 11 -20 16 -20 5 0
9 -7 9 -15 0 -8 7 -15 15 -15 8 0 15 -7 15 -15 0 -8 4 -15 10 -15 5 0 12 -11
16 -25 3 -14 10 -25 15 -25 5 0 9 -6 9 -14 0 -8 6 -21 13 -28 6 -7 21 -31 32
-53 11 -22 23 -42 27 -45 3 -3 10 -18 13 -33 4 -15 11 -27 15 -27 4 0 10 -18
14 -40 3 -22 10 -40 14 -40 9 0 32 -79 39 -137 3 -24 8 -41 13 -38 9 6 20 -96
20 -196 l0 -79 49 0 49 0 -3 58 c-6 140 -19 255 -25 237 -4 -13 -10 7 -14 53
-4 40 -11 70 -16 67 -4 -3 -11 15 -14 40 -4 25 -11 45 -17 45 -5 0 -9 10 -9
23 0 13 -7 32 -15 43 -8 10 -15 27 -15 37 0 9 -4 17 -9 17 -5 0 -12 14 -16 30
-4 17 -10 28 -15 25 -5 -3 -11 8 -15 25 -4 16 -10 30 -15 30 -4 0 -11 11 -14
25 -4 14 -11 25 -16 25 -6 0 -10 7 -10 15 0 8 -4 15 -9 15 -5 0 -13 10 -16 22
-4 11 -18 31 -31 43 -13 12 -24 27 -24 32 0 6 -11 18 -24 29 -14 10 -23 21
-20 25 2 4 -5 10 -16 14 -11 4 -18 9 -16 13 5 9 -20 33 -27 26 -3 -3 -8 4 -12
15 -3 12 -10 19 -15 16 -5 -3 -11 4 -15 15 -3 11 -10 20 -15 20 -5 0 -22 14
-38 30 -17 17 -34 30 -39 30 -4 0 -19 12 -32 25 -13 14 -26 23 -29 21 -2 -3
-10 0 -17 7 -38 37 -67 57 -90 63 -14 3 -22 10 -19 15 3 5 -4 9 -15 9 -11 0
-26 7 -35 15 -8 8 -24 15 -35 15 -12 0 -21 4 -21 9 0 5 -13 12 -30 16 -16 4
-30 10 -30 15 0 4 -18 11 -40 15 -22 4 -40 10 -40 15 0 4 -25 11 -55 15 -30 3
-55 10 -55 14 0 8 -78 21 -122 22 -10 0 -18 4 -18 10 0 5 -44 9 -100 9 -60 0
-100 4 -100 10 0 6 -11 10 -25 10 -23 0 -25 -3 -25 -49z m17 -13 c-3 -8 -6 -5
-6 6 -1 11 2 17 5 13 3 -3 4 -12 1 -19z m199 13 c16 -5 61 -14 99 -21 71 -13
175 -43 207 -61 10 -5 22 -9 28 -9 27 0 254 -122 280 -150 3 -3 32 -23 64 -45
108 -73 269 -244 348 -370 80 -128 156 -310 184 -445 20 -91 21 -104 29 -202
7 -84 7 -88 -13 -88 -17 0 -20 6 -20 32 2 103 -45 317 -98 450 -72 179 -169
324 -319 473 -97 97 -112 110 -177 152 -24 15 -45 30 -48 33 -5 5 -76 44 -145
79 -92 46 -215 92 -280 105 -16 3 -43 8 -60 12 -51 10 -159 25 -190 25 -45 1
-62 8 -62 24 0 12 15 15 72 15 40 0 85 -4 101 -9z"/>
</g>
</svg>
