<?xml version="1.0" standalone="no"?>
<!DOCTYPE svg PUBLIC "-//W3C//DTD SVG 20010904//EN"
 "http://www.w3.org/TR/2001/REC-SVG-20010904/DTD/svg10.dtd">
<svg version="1.0" xmlns="http://www.w3.org/2000/svg"
 width="160.000000pt" height="160.000000pt" viewBox="0 0 160.000000 160.000000"
 preserveAspectRatio="xMidYMid meet">

<g transform="translate(0.000000,160.000000) scale(0.100000,-0.100000)"
fill="#000000" stroke="none">
<path d="M684 1450 c-137 -25 -264 -92 -363 -191 -110 -110 -170 -233 -191
-392 -19 -143 17 -312 91 -430 39 -61 137 -167 154 -167 7 0 27 13 44 29 46
43 43 84 -13 158 -84 112 -116 203 -116 327 0 97 16 163 60 244 99 187 313
294 523 263 295 -45 495 -342 422 -626 -21 -79 -48 -133 -103 -207 -58 -77
-62 -117 -14 -159 18 -16 39 -29 46 -29 21 0 115 108 159 182 55 93 79 175 84
299 10 205 -50 364 -191 505 -131 131 -266 191 -446 199 -52 2 -118 0 -146 -5z"/>
<path d="M720 1180 c-74 -16 -163 -66 -214 -120 -69 -74 -99 -146 -104 -252
-5 -106 14 -176 69 -251 83 -113 92 -128 96 -171 7 -57 -11 -108 -53 -153 -19
-19 -34 -37 -34 -38 0 -6 119 -55 133 -55 17 0 69 56 94 103 13 24 18 55 18
122 0 103 -23 166 -90 245 -71 84 -90 161 -63 251 41 138 216 203 346 128 93
-53 139 -159 113 -259 -7 -26 -36 -76 -67 -117 -71 -92 -96 -157 -96 -248 -1
-52 5 -82 21 -116 21 -45 75 -109 92 -109 12 0 111 38 129 49 12 8 9 14 -13
31 -61 48 -86 155 -51 223 9 17 38 59 64 93 68 89 85 139 85 254 0 83 -4 103
-27 153 -51 109 -124 179 -229 218 -59 23 -159 31 -219 19z"/>
<path d="M744 900 c-41 -16 -74 -68 -74 -117 0 -80 51 -133 127 -133 50 0 82
18 110 59 72 106 -42 240 -163 191z"/>
</g>
</svg>
